<?xml version="1.0" encoding="UTF-8"?>
<svg version="1.1" xmlns="http://www.w3.org/2000/svg" width="550" height="566">
<path d="M0 0 C0.90186035 0.17692383 1.8037207 0.35384766 2.73291016 0.53613281 C9.20599895 1.83501287 15.60888488 3.34657126 22 5 C22.82000488 5.20963379 23.64000977 5.41926758 24.48486328 5.63525391 C58.17024255 14.44485883 88.96649009 31.29229379 116 53 C117.50046875 54.19109375 117.50046875 54.19109375 119.03125 55.40625 C132.89778302 66.7515952 146.2899831 79.6029281 157 94 C157.45971191 94.59973633 157.91942383 95.19947266 158.39306641 95.81738281 C183.7457788 128.9479423 200.63105558 166.93602242 208 208 C208.16226074 208.83128418 208.32452148 209.66256836 208.49169922 210.51904297 C213.76694663 238.13651472 213.55756833 270.45402542 208 298 C207.82307617 298.90186035 207.64615234 299.8037207 207.46386719 300.73291016 C206.16498713 307.20599895 204.65342874 313.60888488 203 320 C202.79036621 320.82000488 202.58073242 321.64000977 202.36474609 322.48486328 C193.55514117 356.17024255 176.70770621 386.96649009 155 414 C154.2059375 415.0003125 153.411875 416.000625 152.59375 417.03125 C141.2484048 430.89778302 128.3970719 444.2899831 114 455 C113.10039551 455.68956787 113.10039551 455.68956787 112.18261719 456.39306641 C79.0520577 481.7457788 41.06397758 498.63105558 0 506 C-0.83128418 506.16226074 -1.66256836 506.32452148 -2.51904297 506.49169922 C-30.13651472 511.76694663 -62.45402542 511.55756833 -90 506 C-90.90186035 505.82307617 -91.8037207 505.64615234 -92.73291016 505.46386719 C-99.20599895 504.16498713 -105.60888488 502.65342874 -112 501 C-112.82000488 500.79036621 -113.64000977 500.58073242 -114.48486328 500.36474609 C-148.17024255 491.55514117 -178.96649009 474.70770621 -206 453 C-207.0003125 452.2059375 -208.000625 451.411875 -209.03125 450.59375 C-222.89778302 439.2484048 -236.2899831 426.3970719 -247 412 C-247.68956787 411.10039551 -247.68956787 411.10039551 -248.39306641 410.18261719 C-273.7457788 377.0520577 -290.63105558 339.06397758 -298 298 C-298.16226074 297.16871582 -298.32452148 296.33743164 -298.49169922 295.48095703 C-303.76694663 267.86348528 -303.55756833 235.54597458 -298 208 C-297.82307617 207.09813965 -297.64615234 206.1962793 -297.46386719 205.26708984 C-296.16498713 198.79400105 -294.65342874 192.39111512 -293 186 C-292.79036621 185.17999512 -292.58073242 184.35999023 -292.36474609 183.51513672 C-283.55514117 149.82975745 -266.70770621 119.03350991 -245 92 C-244.2059375 90.9996875 -243.411875 89.999375 -242.59375 88.96875 C-231.2484048 75.10221698 -218.3970719 61.7100169 -204 51 C-203.40026367 50.54028809 -202.80052734 50.08057617 -202.18261719 49.60693359 C-169.0520577 24.2542212 -131.06397758 7.36894442 -90 0 C-89.16871582 -0.16226074 -88.33743164 -0.32452148 -87.48095703 -0.49169922 C-59.86348528 -5.76694663 -27.54597458 -5.55756833 0 0 Z " fill="#FEFEFE" transform="translate(321,25)"/>
<path d="M0 0 C0.90186035 0.17692383 1.8037207 0.35384766 2.73291016 0.53613281 C9.20599895 1.83501287 15.60888488 3.34657126 22 5 C22.82000488 5.20963379 23.64000977 5.41926758 24.48486328 5.63525391 C58.17024255 14.44485883 88.96649009 31.29229379 116 53 C117.50046875 54.19109375 117.50046875 54.19109375 119.03125 55.40625 C132.89778302 66.7515952 146.2899831 79.6029281 157 94 C157.45971191 94.59973633 157.91942383 95.19947266 158.39306641 95.81738281 C183.7457788 128.9479423 200.63105558 166.93602242 208 208 C208.16226074 208.83128418 208.32452148 209.66256836 208.49169922 210.51904297 C213.76694663 238.13651472 213.55756833 270.45402542 208 298 C207.82307617 298.90186035 207.64615234 299.8037207 207.46386719 300.73291016 C206.16498713 307.20599895 204.65342874 313.60888488 203 320 C202.79036621 320.82000488 202.58073242 321.64000977 202.36474609 322.48486328 C193.55514117 356.17024255 176.70770621 386.96649009 155 414 C154.2059375 415.0003125 153.411875 416.000625 152.59375 417.03125 C141.2484048 430.89778302 128.3970719 444.2899831 114 455 C113.10039551 455.68956787 113.10039551 455.68956787 112.18261719 456.39306641 C79.0520577 481.7457788 41.06397758 498.63105558 0 506 C-0.83128418 506.16226074 -1.66256836 506.32452148 -2.51904297 506.49169922 C-30.13651472 511.76694663 -62.45402542 511.55756833 -90 506 C-90.90186035 505.82307617 -91.8037207 505.64615234 -92.73291016 505.46386719 C-99.20599895 504.16498713 -105.60888488 502.65342874 -112 501 C-112.82000488 500.79036621 -113.64000977 500.58073242 -114.48486328 500.36474609 C-148.17024255 491.55514117 -178.96649009 474.70770621 -206 453 C-207.0003125 452.2059375 -208.000625 451.411875 -209.03125 450.59375 C-222.89778302 439.2484048 -236.2899831 426.3970719 -247 412 C-247.68956787 411.10039551 -247.68956787 411.10039551 -248.39306641 410.18261719 C-273.7457788 377.0520577 -290.63105558 339.06397758 -298 298 C-298.16226074 297.16871582 -298.32452148 296.33743164 -298.49169922 295.48095703 C-303.76694663 267.86348528 -303.55756833 235.54597458 -298 208 C-297.82307617 207.09813965 -297.64615234 206.1962793 -297.46386719 205.26708984 C-296.16498713 198.79400105 -294.65342874 192.39111512 -293 186 C-292.79036621 185.17999512 -292.58073242 184.35999023 -292.36474609 183.51513672 C-283.55514117 149.82975745 -266.70770621 119.03350991 -245 92 C-244.2059375 90.9996875 -243.411875 89.999375 -242.59375 88.96875 C-231.2484048 75.10221698 -218.3970719 61.7100169 -204 51 C-203.40026367 50.54028809 -202.80052734 50.08057617 -202.18261719 49.60693359 C-169.0520577 24.2542212 -131.06397758 7.36894442 -90 0 C-89.16871582 -0.16226074 -88.33743164 -0.32452148 -87.48095703 -0.49169922 C-59.86348528 -5.76694663 -27.54597458 -5.55756833 0 0 Z M-108.75 28.25 C-109.78108887 28.5488208 -110.81217773 28.8476416 -111.87451172 29.15551758 C-148.19681697 39.9692636 -180.74054944 59.8190638 -208 86 C-208.76207764 86.72920654 -208.76207764 86.72920654 -209.53955078 87.47314453 C-216.57197712 94.24111109 -223.04479423 101.24699626 -229 109 C-229.4316748 109.56058105 -229.86334961 110.12116211 -230.30810547 110.69873047 C-236.79757789 119.17858421 -242.6823983 127.88427603 -247.95898438 137.16894531 C-248.95431381 138.91964202 -249.96890522 140.65934556 -250.984375 142.3984375 C-261.07719487 160.36365687 -268.07025772 180.03647447 -273 200 C-273.31582031 201.27488281 -273.63164062 202.54976562 -273.95703125 203.86328125 C-280.97648841 235.50270636 -281.57798794 274.28347486 -272.69360352 305.52905273 C-271.88375826 308.41410862 -271.24181331 311.31813412 -270.625 314.25 C-267.80966838 326.52716779 -263.49241689 337.81896384 -257.94580078 349.07763672 C-256.98178533 351.03702176 -256.03533873 353.00427702 -255.08984375 354.97265625 C-239.1448108 387.86552928 -215.47699701 417.25661562 -186 439 C-185.05640625 439.71542969 -184.1128125 440.43085938 -183.140625 441.16796875 C-150.7699099 465.35244809 -112.06034322 480.26063576 -72 485 C-71.26072266 485.0935376 -70.52144531 485.1870752 -69.75976562 485.28344727 C-29.94722054 489.86937718 10.29221499 482.38081334 47 467 C48.22976563 466.48783936 48.22976563 466.48783936 49.484375 465.96533203 C82.94523761 451.7660996 113.65122934 427.5921105 136 399 C136.76570313 398.06285156 137.53140625 397.12570312 138.3203125 396.16015625 C171.10431133 355.2065114 187.27772083 303.39074068 187.1875 251.3125 C187.18656342 250.60834961 187.18562683 249.90419922 187.18466187 249.17871094 C187.15349963 238.33732343 186.86570244 227.69974627 185 217 C184.84934082 216.11538086 184.69868164 215.23076172 184.54345703 214.31933594 C180.66011877 192.24287498 173.84695699 171.13747061 164 151 C163.48832275 149.9478833 163.48832275 149.9478833 162.96630859 148.87451172 C138.13341362 98.45691079 94.16978324 57.79854751 42 37 C41.21641113 36.67338379 40.43282227 36.34676758 39.62548828 36.01025391 C27.60247902 31.02626532 15.45294591 27.73642462 2.75 25.0625 C2.04076385 24.91279755 1.33152771 24.76309509 0.60079956 24.6088562 C-10.9264725 22.2037968 -22.07631556 20.85377268 -33.8515625 20.76171875 C-34.86809906 20.753647 -35.88463562 20.74557526 -36.93197632 20.73725891 C-39.07833194 20.7235043 -41.22470864 20.7127441 -43.37109375 20.70483398 C-45.51536712 20.69341116 -47.65961431 20.67311711 -49.80371094 20.64331055 C-69.93442886 20.36466853 -89.38363013 22.53161059 -108.75 28.25 Z " fill="#F69028" transform="translate(321,25)"/>
<path d="M0 0 C0.90186035 0.17692383 1.8037207 0.35384766 2.73291016 0.53613281 C9.20599895 1.83501287 15.60888488 3.34657126 22 5 C22.82000488 5.20963379 23.64000977 5.41926758 24.48486328 5.63525391 C58.17024255 14.44485883 88.96649009 31.29229379 116 53 C117.50046875 54.19109375 117.50046875 54.19109375 119.03125 55.40625 C132.89778302 66.7515952 146.2899831 79.6029281 157 94 C157.45971191 94.59973633 157.91942383 95.19947266 158.39306641 95.81738281 C183.7457788 128.9479423 200.63105558 166.93602242 208 208 C208.16226074 208.83128418 208.32452148 209.66256836 208.49169922 210.51904297 C213.76694663 238.13651472 213.55756833 270.45402542 208 298 C207.82307617 298.90186035 207.64615234 299.8037207 207.46386719 300.73291016 C206.16498713 307.20599895 204.65342874 313.60888488 203 320 C202.79036621 320.82000488 202.58073242 321.64000977 202.36474609 322.48486328 C193.55514117 356.17024255 176.70770621 386.96649009 155 414 C154.2059375 415.0003125 153.411875 416.000625 152.59375 417.03125 C141.2484048 430.89778302 128.3970719 444.2899831 114 455 C113.10039551 455.68956787 113.10039551 455.68956787 112.18261719 456.39306641 C79.0520577 481.7457788 41.06397758 498.63105558 0 506 C-0.83128418 506.16226074 -1.66256836 506.32452148 -2.51904297 506.49169922 C-30.13651472 511.76694663 -62.45402542 511.55756833 -90 506 C-90.90186035 505.82307617 -91.8037207 505.64615234 -92.73291016 505.46386719 C-99.20599895 504.16498713 -105.60888488 502.65342874 -112 501 C-112.82000488 500.79036621 -113.64000977 500.58073242 -114.48486328 500.36474609 C-148.17024255 491.55514117 -178.96649009 474.70770621 -206 453 C-207.0003125 452.2059375 -208.000625 451.411875 -209.03125 450.59375 C-222.89778302 439.2484048 -236.2899831 426.3970719 -247 412 C-247.68956787 411.10039551 -247.68956787 411.10039551 -248.39306641 410.18261719 C-273.7457788 377.0520577 -290.63105558 339.06397758 -298 298 C-298.16226074 297.16871582 -298.32452148 296.33743164 -298.49169922 295.48095703 C-303.76694663 267.86348528 -303.55756833 235.54597458 -298 208 C-297.82307617 207.09813965 -297.64615234 206.1962793 -297.46386719 205.26708984 C-296.16498713 198.79400105 -294.65342874 192.39111512 -293 186 C-292.79036621 185.17999512 -292.58073242 184.35999023 -292.36474609 183.51513672 C-283.55514117 149.82975745 -266.70770621 119.03350991 -245 92 C-244.2059375 90.9996875 -243.411875 89.999375 -242.59375 88.96875 C-231.2484048 75.10221698 -218.3970719 61.7100169 -204 51 C-203.40026367 50.54028809 -202.80052734 50.08057617 -202.18261719 49.60693359 C-169.0520577 24.2542212 -131.06397758 7.36894442 -90 0 C-89.16871582 -0.16226074 -88.33743164 -0.32452148 -87.48095703 -0.49169922 C-59.86348528 -5.76694663 -27.54597458 -5.55756833 0 0 Z M-189 53 C-189.60231445 53.4340918 -190.20462891 53.86818359 -190.82519531 54.31542969 C-198.00991712 59.54616448 -204.67708229 65.25779765 -211.1484375 71.3359375 C-213.82764019 73.83897344 -216.55906463 76.26680606 -219.3125 78.6875 C-223.58637389 82.54210145 -227.34659013 86.55970185 -231 91 C-231.46277344 91.55042969 -231.92554688 92.10085937 -232.40234375 92.66796875 C-260.7999505 126.44766556 -279.58348822 165.6451777 -288 209 C-288.16371094 209.78181641 -288.32742188 210.56363281 -288.49609375 211.36914062 C-295.45766653 245.28523281 -292.86052501 286.04210485 -283 319 C-282.70915527 319.97404785 -282.41831055 320.9480957 -282.11865234 321.95166016 C-272.96212793 351.80089512 -258.86792837 380.8022758 -239 405 C-238.34281982 405.80147461 -238.34281982 405.80147461 -237.67236328 406.61914062 C-228.80558522 417.38571449 -219.7519667 428.06877632 -209 437 C-207.62134766 438.21042969 -207.62134766 438.21042969 -206.21484375 439.4453125 C-158.25412777 481.39951977 -94.21695543 502.89951209 -30.67480469 498.78466797 C-0.90605155 496.49041045 29.18213827 490.47514781 56 477 C57.28328352 476.3751288 58.56717136 475.75149762 59.8515625 475.12890625 C79.43608082 465.57243469 97.48351125 454.26185695 114 440 C114.79148437 439.319375 115.58296875 438.63875 116.3984375 437.9375 C127.51594016 428.15121934 137.91814771 417.70993409 147 406 C147.78632813 405.030625 148.57265625 404.06125 149.3828125 403.0625 C165.48235763 382.8749826 177.20334669 359.68510051 186.06738281 335.53417969 C186.8444813 333.42258747 187.64642336 331.32384926 188.4609375 329.2265625 C199.05066614 300.29029762 200.61935408 269.46539311 200 239 C199.98598145 238.19836426 199.97196289 237.39672852 199.95751953 236.57080078 C198.85168008 187.58325295 177.26282271 137.87068407 147 100 C146.5354541 99.41831055 146.0709082 98.83662109 145.59228516 98.23730469 C133.13609403 82.82622578 119.02933807 68.66701167 103 57 C101.85005169 56.14350934 100.70031411 55.28673567 99.55078125 54.4296875 C26.09389208 0.25909517 -74.33248122 -7.90859778 -189 53 Z " fill="#0C5997" transform="translate(321,25)"/>
<path d="M0 0 C12.60579912 -0.59336921 23.59645941 -0.98584133 33.9375 7.375 C34.618125 8.24125 35.29875 9.1075 36 10 C36.42667969 10.48984375 36.85335937 10.9796875 37.29296875 11.484375 C44.49057412 20.34946079 45.10087988 32.03269774 44 43 C43.52048434 46.43892994 42.91503274 49.84238629 42.25 53.25 C42.01494751 54.45450806 42.01494751 54.45450806 41.77514648 55.68334961 C40.3983939 62.15415274 38.31264216 67.64023406 36 74 C74.94 74 113.88 74 154 74 C154 74.66 154 75.32 154 76 C152.52685547 77.44091797 152.52685547 77.44091797 150.4921875 79.1171875 C147.5339166 81.63035121 144.75346349 84.20251503 142.0703125 87.0078125 C141.41933594 87.68457031 140.76835937 88.36132812 140.09765625 89.05859375 C138.78235294 90.43640652 137.47502003 91.82187231 136.17578125 93.21484375 C129.37222775 100.23310505 123.2821104 104.12569297 113.37741089 104.4619751 C109.20678109 104.50679766 105.04410203 104.41776029 100.875 104.3125 C99.13805307 104.28737619 97.40107099 104.26457025 95.6640625 104.24414062 C91.44182851 104.18948978 87.22130877 104.10344785 83 104 C82.90803345 104.95120728 82.90803345 104.95120728 82.81420898 105.92163086 C80.85219247 125.92220605 80.85219247 125.92220605 78.5 135.625 C77.60675042 139.8679355 77.11398205 144.1740506 76.5625 148.47265625 C76 152 76 152 75.05908203 155.70678711 C74.00747088 159.84993646 73.21703183 164.00770302 72.4921875 168.21875 C72.37625244 168.87907227 72.26031738 169.53939453 72.14086914 170.21972656 C71.7157527 172.64593279 71.29565572 175.07301639 70.875 177.5 C69.92625 182.945 68.9775 188.39 68 194 C55.46 194 42.92 194 30 194 C33.34914417 175.02151639 33.34914417 175.02151639 35 166.5625 C36.29065298 159.88930043 37.4831903 153.21052193 38.5625 146.5 C39.54432997 140.40909109 40.78312848 134.44671926 42.2421875 128.44921875 C43.37221033 123.3058674 44.18888342 118.11643277 44.99804688 112.9140625 C45.90077427 107.19845145 45.90077427 107.19845145 47 105 C37.43 105.33 27.86 105.66 18 106 C17.62488281 108.06121094 17.24976563 110.12242187 16.86328125 112.24609375 C16.48306423 114.27247634 16.09738113 116.29774815 15.71118164 118.32299805 C15.44863279 119.71548771 15.19164975 121.10904014 14.94067383 122.50366211 C13.16587342 132.3373972 11.22512563 142.41989949 3 149 C0.04271841 149.98576053 -1.72027896 150.07457837 -4.7890625 150 C-15.2112236 149.60053259 -15.2112236 149.60053259 -24.890625 152.64453125 C-26.92597452 154.80810359 -26.92597452 154.80810359 -28.78125 157.27734375 C-41.88280039 173.35442231 -65.26179422 183.32894252 -84 191 C-85.00417969 191.42023438 -86.00835937 191.84046875 -87.04296875 192.2734375 C-101.29502766 197.87321249 -119.0114191 201.53351083 -133.5703125 195.3125 C-141.77882103 190.87832176 -146.36936205 184.51755201 -150 176 C-154.07691545 161.68107745 -151.16442114 144.18915469 -144.75 131.0625 C-144.1725 130.051875 -143.595 129.04125 -143 128 C-142.67 128 -142.34 128 -142 128 C-141.96132812 129.75763672 -141.96132812 129.75763672 -141.921875 131.55078125 C-141.54422235 143.36753261 -140.60746888 155.00128254 -132 164 C-124.83074593 170.21335353 -115.1007748 168.39415118 -106.21875 167.8203125 C-69.2502575 163.02376759 -32.03473784 130.30566364 -9.9296875 102.14453125 C6.65142243 80.54893014 26.2227748 54.6812661 23.31591797 25.92822266 C22.56747111 21.36003621 20.63337669 17.73893425 18 14 C17.443125 13.0925 16.88625 12.185 16.3125 11.25 C11.68800891 6.75049516 5.76529769 3.81592086 0 1 C0 0.67 0 0.34 0 0 Z " fill="#F99028" transform="translate(279,153)"/>
<path d="M0 0 C96.36 0 192.72 0 292 0 C292 10.56 292 21.12 292 32 C195.64 32 99.28 32 0 32 C0 21.44 0 10.88 0 0 Z " fill="#F9932D" transform="translate(126,365)"/>
<path d="M0 0 C7.5386871 5.0817223 13.70028028 12.60520892 19.5703125 19.484375 C22.03740315 22.32433856 24.58868616 25.08397247 27.14453125 27.84375 C27.65886719 28.39925537 28.17320312 28.95476074 28.703125 29.52709961 C29.76063901 30.66854071 30.81842174 31.80973291 31.87646484 32.95068359 C34.40756399 35.68195617 36.93213011 38.41924887 39.45703125 41.15625 C42.50111902 44.45571594 45.5465994 47.75385081 48.59765625 51.046875 C54.28626675 57.19060983 59.93030336 63.36553326 65.45703125 69.65625 C61.36439031 74.71820063 56.95012546 78.99854858 52.0703125 83.30078125 C48.04320094 86.9305993 44.24816608 90.78269919 40.45703125 94.65625 C37.23187462 93.2513455 35.22149043 91.60499814 32.84765625 89.0234375 C32.17476563 88.29898438 31.501875 87.57453125 30.80859375 86.828125 C30.11507812 86.07015625 29.4215625 85.3121875 28.70703125 84.53125 C27.33853695 83.04828089 25.96874669 81.56650665 24.59765625 80.0859375 C23.91840088 79.35221924 23.23914551 78.61850098 22.53930664 77.86254883 C19.84021502 75.00269527 17.05854183 72.23351542 14.25268555 69.47875977 C11.81752181 67.00717618 9.58640116 64.38141043 7.33203125 61.74609375 C4.43701877 58.51936109 1.30857571 55.53736273 -1.8203125 52.5390625 C-3.54296875 50.65625 -3.54296875 50.65625 -3.54296875 48.65625 C-4.20296875 48.65625 -4.86296875 48.65625 -5.54296875 48.65625 C-5.59159058 49.31127502 -5.6402124 49.96630005 -5.69030762 50.64117432 C-6.26863308 57.72855439 -7.30240001 64.64752379 -8.57421875 71.640625 C-8.77019653 72.74045715 -8.96617432 73.84028931 -9.16809082 74.97344971 C-9.78868827 78.45184714 -10.41554193 81.92907859 -11.04296875 85.40625 C-11.66918242 88.89790946 -12.29407399 92.38980063 -12.91784668 95.88189697 C-13.30458962 98.04475588 -13.69293576 100.20732892 -14.08312988 102.36956787 C-14.26001343 103.3545929 -14.43689697 104.33961792 -14.61914062 105.35449219 C-14.77378784 106.21177917 -14.92843506 107.06906616 -15.08776855 107.95233154 C-15.63076281 111.17775238 -16.0804067 114.41831568 -16.54296875 117.65625 C-27.76296875 117.65625 -38.98296875 117.65625 -50.54296875 117.65625 C-48.94097099 104.33437389 -46.99859809 91.24149009 -44.38232422 78.08374023 C-43.11353189 71.68575693 -41.95346311 65.29325406 -40.98046875 58.84375 C-39.5676701 49.52509865 -37.84049116 40.27919471 -36.00732422 31.03466797 C-35.58491306 28.87108781 -35.18673493 26.70478828 -34.796875 24.53515625 C-32.77788679 13.93831985 -29.66473021 5.91420263 -20.54296875 -0.34375 C-14.18283635 -4.02593192 -6.40795776 -3.14225599 0 0 Z " fill="#095897" transform="translate(198.54296875,183.34375)"/>
<path d="M0 0 C4.65346557 3.6979285 7.69189931 7.67999856 8.90234375 13.57421875 C8.98000459 15.01520306 9.01030742 16.45930504 9 17.90234375 C8.99516602 19.10117188 8.99516602 19.10117188 8.99023438 20.32421875 C8.97766602 21.56171875 8.97766602 21.56171875 8.96484375 22.82421875 C8.96033203 23.6646875 8.95582031 24.50515625 8.95117188 25.37109375 C8.93942336 27.43883276 8.92148897 29.50653499 8.90234375 31.57421875 C8.24234375 31.57421875 7.58234375 31.57421875 6.90234375 31.57421875 C6.37447266 30.37925781 6.37447266 30.37925781 5.8359375 29.16015625 C1.21515178 19.2429608 -3.86331869 13.59485136 -14.09765625 9.57421875 C-37.7509383 1.78254937 -66.09102798 11.87470425 -87.3984375 22.11328125 C-88.34557617 22.56807861 -89.29271484 23.02287598 -90.26855469 23.49145508 C-92.17496066 24.41133942 -94.07805945 25.33811395 -95.97753906 26.2722168 C-96.8537793 26.69801025 -97.73001953 27.12380371 -98.6328125 27.5625 C-99.81435913 28.14318237 -99.81435913 28.14318237 -101.01977539 28.7355957 C-103.09765625 29.57421875 -103.09765625 29.57421875 -106.09765625 29.57421875 C-82.27558954 8.36896998 -31.42935591 -21.36259759 0 0 Z " fill="#0E5998" transform="translate(324.09765625,137.42578125)"/>
<path d="M0 0 C0.74886475 0.00523682 1.49772949 0.01047363 2.26928711 0.01586914 C3.07817383 0.0190918 3.88706055 0.02231445 4.72045898 0.02563477 C5.5705957 0.03401367 6.42073242 0.04239258 7.29663086 0.05102539 C8.15063477 0.05553711 9.00463867 0.06004883 9.88452148 0.06469727 C12.00108749 0.07652166 14.11761771 0.0944577 16.23413086 0.11352539 C16.56185634 7.18411809 15.93080789 12.56997575 13.23413086 19.11352539 C12.78166992 20.2646582 12.32920898 21.41579102 11.86303711 22.60180664 C5.76610663 37.61649386 -2.90755134 51.28923806 -12.76586914 64.11352539 C-13.79454446 60.91995817 -13.70018838 58.84892061 -12.91040039 55.60571289 C-12.7019751 54.71392334 -12.4935498 53.82213379 -12.27880859 52.90332031 C-12.04766357 51.94143799 -11.81651855 50.97955566 -11.57836914 49.98852539 C-9.29763862 40.06922098 -7.56906641 30.14330322 -6.11083984 20.07202148 C-3.22727699 0.20747737 -3.22727699 0.20747737 0 0 Z " fill="#0D5A98" transform="translate(279.765869140625,182.886474609375)"/>
<path d="M0 0 C1.21816406 0.03480469 1.21816406 0.03480469 2.4609375 0.0703125 C3.68683594 0.09738281 3.68683594 0.09738281 4.9375 0.125 C5.87722656 0.15980469 5.87722656 0.15980469 6.8359375 0.1953125 C6.91691074 2.46556218 6.97511454 4.73663325 7.0234375 7.0078125 C7.05824219 8.27238281 7.09304688 9.53695313 7.12890625 10.83984375 C6.8359375 14.1953125 6.8359375 14.1953125 5.5546875 16.1328125 C2.76535968 17.85712424 0.0194128 17.37550922 -3.1640625 17.1953125 C-3.1640625 16.5353125 -3.1640625 15.8753125 -3.1640625 15.1953125 C-1.4625 14.793125 -1.4625 14.793125 0.2734375 14.3828125 C1.4490625 13.9909375 2.6246875 13.5990625 3.8359375 13.1953125 C4.1659375 12.2053125 4.4959375 11.2153125 4.8359375 10.1953125 C3.8459375 10.6903125 3.8459375 10.6903125 2.8359375 11.1953125 C-0.1640625 11.4453125 -0.1640625 11.4453125 -3.1640625 11.1953125 C-5.1640625 8.1953125 -5.1640625 8.1953125 -4.9140625 5.1328125 C-4.06837168 1.82052347 -3.56479877 0.32173274 0 0 Z " fill="#FEEEDD" transform="translate(263.1640625,374.8046875)"/>
<path d="M0 0 C0.08097324 2.27024968 0.13917704 4.54132075 0.1875 6.8125 C0.22230469 8.07707031 0.25710938 9.34164063 0.29296875 10.64453125 C0 14 0 14 -1.28125 15.9375 C-4.07057782 17.66181174 -6.8165247 17.18019672 -10 17 C-10 16.34 -10 15.68 -10 15 C-6.535 14.505 -6.535 14.505 -3 14 C-3 13.01 -3 12.02 -3 11 C-3.94875 11.04125 -4.8975 11.0825 -5.875 11.125 C-9 11 -9 11 -11 9 C-11.32339354 5.96010077 -11.45670212 3.85631647 -10 1.125 C-6.74686316 -0.70488947 -3.68609891 -0.18128355 0 0 Z " fill="#FEF1E5" transform="translate(407,375)"/>
<path d="M0 0 C0.66 0 1.32 0 2 0 C2 4.95 2 9.9 2 15 C-4.8359375 15.1953125 -4.8359375 15.1953125 -7 15 C-9 13 -9 13 -9.3125 10.0625 C-9 7 -9 7 -7.875 5.125 C-5.21965017 3.5317901 -3.03210482 3.79785968 0 4 C0 2.68 0 1.36 0 0 Z " fill="#FEF0E2" transform="translate(314,371)"/>
<path d="M0 0 C0.99 0 1.98 0 3 0 C3 4.95 3 9.9 3 15 C2.01 15 1.02 15 0 15 C-0.33 11.7 -0.66 8.4 -1 5 C-2.32 5 -3.64 5 -5 5 C-4.814375 6.918125 -4.814375 6.918125 -4.625 8.875 C-4.55539063 9.59429687 -4.48578125 10.31359375 -4.4140625 11.0546875 C-4.13625251 13.22668245 -4.13625251 13.22668245 -2 15 C-3.65 14.67 -5.3 14.34 -7 14 C-7.33 10.7 -7.66 7.4 -8 4 C-7.34 4 -6.68 4 -6 4 C-6 3.01 -6 2.02 -6 1 C-5.34 1 -4.68 1 -4 1 C-4 1.66 -4 2.32 -4 3 C-3.01 2.67 -2.02 2.34 -1 2 C-0.67 1.34 -0.34 0.68 0 0 Z " fill="#FCCA98" transform="translate(239,371)"/>
<path d="M0 0 C0 0.33 0 0.66 0 1 C-0.56589844 1.12117188 -1.13179687 1.24234375 -1.71484375 1.3671875 C-2.44832031 1.53476562 -3.18179688 1.70234375 -3.9375 1.875 C-4.66839844 2.03742188 -5.39929688 2.19984375 -6.15234375 2.3671875 C-8.20700294 2.82961523 -8.20700294 2.82961523 -9 5 C-9.33333333 8 -9.33333333 8 -9 11 C-5.5647952 13.29013653 -4.014669 13.17842973 0 13 C0 13.66 0 14.32 0 15 C-5.21716515 15.44213264 -5.21716515 15.44213264 -8 15 C-9.70680947 13.37446717 -11.37660195 11.70884005 -13 10 C-16.21061788 9.58109782 -16.21061788 9.58109782 -19 10 C-19 9.34 -19 8.68 -19 8 C-17.02 8 -15.04 8 -13 8 C-12.731875 7.236875 -12.46375 6.47375 -12.1875 5.6875 C-9.37440127 -0.67898659 -6.54468991 -0.32187 0 0 Z " fill="#FDE6D0" transform="translate(173,371)"/>
<path d="M0 0 C0.36253776 5.43806647 0.36253776 5.43806647 -1.25 7.9375 C-3 9 -3 9 -5.1875 8.6875 C-5.785625 8.460625 -6.38375 8.23375 -7 8 C-7.6875 5.6875 -7.6875 5.6875 -8 3 C-5.90994325 -0.36731366 -3.75103888 -0.30413829 0 0 Z " fill="#F9993A" transform="translate(268,376)"/>
<path d="M0 0 C2.31 0.33 4.62 0.66 7 1 C7 4.63 7 8.26 7 12 C6.34 12 5.68 12 5 12 C4.67 10.35 4.34 8.7 4 7 C2.68 7.33 1.36 7.66 0 8 C0 8.66 0 9.32 0 10 C1.32 10.66 2.64 11.32 4 12 C2.02 12 0.04 12 -2 12 C-2.33 10.68 -2.66 9.36 -3 8 C0.06117568 5.37613513 0.73173127 5 5 5 C5 4.01 5 3.02 5 2 C3.02 2 1.04 2 -1 2 C-0.67 1.34 -0.34 0.68 0 0 Z " fill="#FDE3C8" transform="translate(347,374)"/>
<path d="M0 0 C0.78375 0.04125 1.5675 0.0825 2.375 0.125 C2.5 3.5 2.5 3.5 2.375 7.125 C1.715 7.785 1.055 8.445 0.375 9.125 C-2.25 8.75 -2.25 8.75 -4.625 8.125 C-4.75 5.25 -4.75 5.25 -4.625 2.125 C-2.625 0.125 -2.625 0.125 0 0 Z " fill="#F9922C" transform="translate(402.625,375.875)"/>
<path d="M0 0 C2 2 2 2 2.3125 4.9375 C2 8 2 8 0.875 9.875 C-1.88090884 11.52854531 -3.85075452 11.39365568 -7 11 C-8.875 9.8125 -8.875 9.8125 -10 8 C-10.42317323 5.17884512 -10.38718434 3.66049093 -8.9375 1.1875 C-5.94449731 -0.646921 -3.42183337 -0.31107576 0 0 Z M-6 1 C-7.41577477 2.18424326 -7.41577477 2.18424326 -7.0625 5.5625 C-7.041875 6.696875 -7.02125 7.83125 -7 9 C-4.60280568 9.67958603 -4.60280568 9.67958603 -2 10 C0.34973818 8.10244856 0.34973818 8.10244856 0.125 4.875 C0.08375 3.92625 0.0425 2.9775 0 2 C-1.9914056 1.61866701 -3.99279077 1.28674418 -6 1 Z " fill="#FEF1E5" transform="translate(185,375)"/>
<path d="M0 0 C0.78375 0.04125 1.5675 0.0825 2.375 0.125 C2.5625 3.5 2.5625 3.5 2.375 7.125 C-0.625 9.125 -0.625 9.125 -2.8125 8.75 C-3.410625 8.54375 -4.00875 8.3375 -4.625 8.125 C-4.75 5.25 -4.75 5.25 -4.625 2.125 C-2.625 0.125 -2.625 0.125 0 0 Z " fill="#F9942E" transform="translate(311.625,375.875)"/>
<path d="M0 0 C0.66 0 1.32 0 2 0 C2.33 2.97 2.66 5.94 3 9 C4.65 9 6.3 9 8 9 C8.33 6.03 8.66 3.06 9 0 C9.66 0 10.32 0 11 0 C11 3.63 11 7.26 11 11 C3.28515625 11.09765625 3.28515625 11.09765625 1 11 C0 10 0 10 -0.09765625 7.71484375 C-0.08605469 6.79832031 -0.07445312 5.88179688 -0.0625 4.9375 C-0.05347656 4.01839844 -0.04445312 3.09929687 -0.03515625 2.15234375 C-0.02355469 1.44207031 -0.01195312 0.73179687 0 0 Z " fill="#FDEBD9" transform="translate(213,375)"/>
<path d="M0 0 C7.71484375 -0.09765625 7.71484375 -0.09765625 10 0 C11 1 11 1 11.09765625 3.28515625 C11.08605469 4.20167969 11.07445312 5.11820312 11.0625 6.0625 C11.05347656 6.98160156 11.04445313 7.90070313 11.03515625 8.84765625 C11.02355469 9.55792969 11.01195312 10.26820313 11 11 C10.34 11 9.68 11 9 11 C8.67 8.03 8.34 5.06 8 2 C6.35 2.33 4.7 2.66 3 3 C2.67 5.64 2.34 8.28 2 11 C1.34 11 0.68 11 0 11 C0 7.37 0 3.74 0 0 Z " fill="#FEECDB" transform="translate(245,375)"/>
<path d="M0 0 C7.71484375 -0.09765625 7.71484375 -0.09765625 10 0 C11 1 11 1 11.09765625 3.28515625 C11.08605469 4.20167969 11.07445312 5.11820312 11.0625 6.0625 C11.05347656 6.98160156 11.04445313 7.90070313 11.03515625 8.84765625 C11.02355469 9.55792969 11.01195312 10.26820313 11 11 C10.34 11 9.68 11 9 11 C8.67 8.03 8.34 5.06 8 2 C6.35 2.33 4.7 2.66 3 3 C2.67 5.64 2.34 8.28 2 11 C1.34 11 0.68 11 0 11 C0 7.37 0 3.74 0 0 Z " fill="#FEEFE0" transform="translate(363,375)"/>
<path d="M0 0 C2.33294775 -0.04241723 4.66702567 -0.04092937 7 0 C8 1 8 1 8.09765625 3.28515625 C8.08605469 4.20167969 8.07445312 5.11820312 8.0625 6.0625 C8.05347656 6.98160156 8.04445313 7.90070313 8.03515625 8.84765625 C8.02355469 9.55792969 8.01195312 10.26820313 8 11 C7.34 11 6.68 11 6 11 C5.67 9.35 5.34 7.7 5 6 C3.01508358 6.26676204 3.01508358 6.26676204 1 7 C0.67 7.99 0.34 8.98 0 10 C1.32 10.33 2.64 10.66 4 11 C2.35 11 0.7 11 -1 11 C-1.33 9.68 -1.66 8.36 -2 7 C0.38573379 5.10786631 2.07175348 3.97608217 5 3 C5.33 2.34 5.66 1.68 6 1 C4.02 1 2.04 1 0 1 C0 0.67 0 0.34 0 0 Z " fill="#FEEEDE" transform="translate(280,375)"/>
<path d="M0 0 C3.63 0 7.26 0 11 0 C9.02 0.99 9.02 0.99 7 2 C6.29327794 5.10930941 6.29327794 5.10930941 6.25 8.625 C6.19328125 9.81351562 6.1365625 11.00203125 6.078125 12.2265625 C6.05234375 13.14179688 6.0265625 14.05703125 6 15 C5.34 15 4.68 15 4 15 C4 10.71 4 6.42 4 2 C2.68 2 1.36 2 0 2 C0 1.34 0 0.68 0 0 Z " fill="#FDE9D4" transform="translate(324,371)"/>
<path d="M0 0 C0.66 0 1.32 0 2 0 C2 0.99 2 1.98 2 3 C2.99 3.33 3.98 3.66 5 4 C3.68 4 2.36 4 1 4 C1.185625 5.918125 1.185625 5.918125 1.375 7.875 C1.44460937 8.59429687 1.51421875 9.31359375 1.5859375 10.0546875 C1.86374749 12.22668245 1.86374749 12.22668245 4 14 C2.35 13.67 0.7 13.34 -1 13 C-1.33 9.7 -1.66 6.4 -2 3 C-1.34 3 -0.68 3 0 3 C0 2.01 0 1.02 0 0 Z " fill="#FDE6CF" transform="translate(233,372)"/>
<path d="M0 0 C6.93359375 -0.09765625 6.93359375 -0.09765625 9 0 C10 1 10 1 10.09765625 3.28515625 C10.08605469 4.20167969 10.07445312 5.11820312 10.0625 6.0625 C10.05347656 6.98160156 10.04445312 7.90070313 10.03515625 8.84765625 C10.02355469 9.55792969 10.01195312 10.26820313 10 11 C9.67 11 9.34 11 9 11 C9 8.03 9 5.06 9 2 C6.58354218 1.83312552 6.58354218 1.83312552 4 2 C1.23776722 4.76223278 1.42143709 7.20706617 1 11 C0.67 11 0.34 11 0 11 C0 7.37 0 3.74 0 0 Z " fill="#FEF7EF" transform="translate(190,375)"/>
<path d="M0 0 C2.02558881 3.34939881 2.21738987 5.86962551 2.125 9.75 C2.10695312 10.73484375 2.08890625 11.7196875 2.0703125 12.734375 C2.04710937 13.48203125 2.02390625 14.2296875 2 15 C1.01 15 0.02 15 -1 15 C-1.10251672 9.87416389 -1.03590199 5.05002222 0 0 Z " fill="#F88A1C" transform="translate(230,371)"/>
<path d="M0 0 C0 0.66 0 1.32 0 2 C-0.99 2.66 -1.98 3.32 -3 4 C-3.57748803 5.96361864 -3.57748803 5.96361864 -3.6875 8.125 C-3.790625 9.40375 -3.89375 10.6825 -4 12 C-4.66 12 -5.32 12 -6 12 C-6 8.37 -6 4.74 -6 1 C-2 0 -2 0 0 0 Z " fill="#FEEDDC" transform="translate(343,374)"/>
<path d="M0 0 C1.32 0.66 2.64 1.32 4 2 C0.53252172 4.77398263 -3.06402511 6.95912413 -7 9 C-7.66 8.67 -8.32 8.34 -9 8 C-6.03 5.36 -3.06 2.72 0 0 Z " fill="#235F9B" transform="translate(227,159)"/>
<path d="M0 0 C0.33 0 0.66 0 1 0 C1.08131463 1.43655854 1.13933559 2.8744483 1.1875 4.3125 C1.22230469 5.11300781 1.25710938 5.91351563 1.29296875 6.73828125 C1 9 1 9 -0.28125 10.78125 C-3.03237667 12.73204891 -5.74123057 12.18445865 -9 12 C-9 11.34 -9 10.68 -9 10 C-6.03 9.34 -3.06 8.68 0 8 C0 5.36 0 2.72 0 0 Z " fill="#FDE6CE" transform="translate(269,380)"/>
<path d="M0 0 C2.9375 0.8125 2.9375 0.8125 6 2 C6.33 2.99 6.66 3.98 7 5 C5.02 5 3.04 5 1 5 C0.67 5.66 0.34 6.32 0 7 C0 4.69 0 2.38 0 0 Z " fill="#F88B1E" transform="translate(201,379)"/>
<path d="M0 0 C0.99 0 1.98 0 3 0 C3 1.98 3 3.96 3 6 C1.35 6 -0.3 6 -2 6 C-1.125 1.125 -1.125 1.125 0 0 Z " fill="#F88D22" transform="translate(264,377)"/>
<path d="M0 0 C1.99954746 -0.04254356 4.00041636 -0.04080783 6 0 C7 1 7 1 7.09765625 3.28515625 C7.08605469 4.20167969 7.07445312 5.11820312 7.0625 6.0625 C7.05347656 6.98160156 7.04445313 7.90070313 7.03515625 8.84765625 C7.02355469 9.55792969 7.01195312 10.26820313 7 11 C6.34 11 5.68 11 5 11 C4.97421875 10.37351562 4.9484375 9.74703125 4.921875 9.1015625 C4.86515625 8.28429687 4.8084375 7.46703125 4.75 6.625 C4.70359375 5.81289063 4.6571875 5.00078125 4.609375 4.1640625 C4.2077908 1.81161073 4.2077908 1.81161073 1.953125 0.7109375 C1.30859375 0.47632813 0.6640625 0.24171875 0 0 Z " fill="#FEF2E6" transform="translate(386,375)"/>
<path d="M0 0 C1.99954746 -0.04254356 4.00041636 -0.04080783 6 0 C7 1 7 1 7.09765625 3.28515625 C7.08605469 4.20167969 7.07445312 5.11820312 7.0625 6.0625 C7.05347656 6.98160156 7.04445313 7.90070313 7.03515625 8.84765625 C7.02355469 9.55792969 7.01195312 10.26820313 7 11 C6.34 11 5.68 11 5 11 C4.97421875 10.37351562 4.9484375 9.74703125 4.921875 9.1015625 C4.86515625 8.28429687 4.8084375 7.46703125 4.75 6.625 C4.70359375 5.81289063 4.6571875 5.00078125 4.609375 4.1640625 C4.2077908 1.81161073 4.2077908 1.81161073 1.953125 0.7109375 C1.30859375 0.47632813 0.6640625 0.24171875 0 0 Z " fill="#FEF1E5" transform="translate(295,375)"/>
<path d="M0 0 C0.5625 1.9375 0.5625 1.9375 1 4 C0 5 0 5 -3.5625 5.0625 C-4.696875 5.041875 -5.83125 5.02125 -7 5 C-7.33 5.66 -7.66 6.32 -8 7 C-8 6.01 -8 5.02 -8 4 C-6.68 3.67 -5.36 3.34 -4 3 C-4.33 2.34 -4.66 1.68 -5 1 C-3.35 0.67 -1.7 0.34 0 0 Z " fill="#F99837" transform="translate(404,385)"/>
<path d="M0 0 C1.98 0.99 1.98 0.99 4 2 C3.67 2.33 3.34 2.66 3 3 C2.76924918 4.34747084 2.58846937 5.70377565 2.4375 7.0625 C2.2209375 9.0115625 2.2209375 9.0115625 2 11 C1.34 11 0.68 11 0 11 C0 7.37 0 3.74 0 0 Z " fill="#FDEDDC" transform="translate(382,375)"/>
<path d="M0 0 C1.98 0.99 1.98 0.99 4 2 C3.67 2.33 3.34 2.66 3 3 C2.76924918 4.34747084 2.58846937 5.70377565 2.4375 7.0625 C2.2209375 9.0115625 2.2209375 9.0115625 2 11 C1.34 11 0.68 11 0 11 C0 7.37 0 3.74 0 0 Z " fill="#FEEDDD" transform="translate(291,375)"/>
<path d="M0 0 C2.125 0.375 2.125 0.375 4 1 C4 3.31 4 5.62 4 8 C3.67 8 3.34 8 3 8 C3 6.02 3 4.04 3 2 C-0.31460705 3.70892499 -0.31460705 3.70892499 -0.6875 7.125 C-0.790625 8.07375 -0.89375 9.0225 -1 10 C-1.33 10 -1.66 10 -2 10 C-2.1953125 3.9453125 -2.1953125 3.9453125 -2 2 C-1.34 1.34 -0.68 0.68 0 0 Z " fill="#F88C1F" transform="translate(194,376)"/>
<path d="M0 0 C0.66 0 1.32 0 2 0 C2.5775 0.66 3.155 1.32 3.75 2 C5.90578747 4.32244569 5.90578747 4.32244569 9.25 4.25 C10.1575 4.1675 11.065 4.085 12 4 C12 4.66 12 5.32 12 6 C4.65306122 6.48979592 4.65306122 6.48979592 1.5 4.125 C0 2 0 2 0 0 Z " fill="#FEF1E3" transform="translate(161,380)"/>
<path d="M0 0 C0.99 0.33 1.98 0.66 3 1 C2.01 1.495 2.01 1.495 1 2 C0.34227572 5.02934491 0.34227572 5.02934491 0 8 C-0.99 8 -1.98 8 -3 8 C-3.36923077 3.44615385 -3.36923077 3.44615385 -1.5 1.1875 C-1.005 0.795625 -0.51 0.40375 0 0 Z " fill="#FDE1C5" transform="translate(178,375)"/>
<path d="M0 0 C0.99 0.33 1.98 0.66 3 1 C2.01 1.495 2.01 1.495 1 2 C1 2.66 1 3.32 1 4 C2.32 4.66 3.64 5.32 5 6 C3.02 6 1.04 6 -1 6 C-1.625 4.125 -1.625 4.125 -2 2 C-1.34 1.34 -0.68 0.68 0 0 Z " fill="#FEEDDB" transform="translate(346,380)"/>
<path d="M0 0 C0.33 0 0.66 0 1 0 C1 2.97 1 5.94 1 9 C-3 4.25 -3 4.25 -3 2 C-2.01 2 -1.02 2 0 2 C0 1.34 0 0.68 0 0 Z " fill="#F88B1D" transform="translate(211,375)"/>
</svg>
